<svg width="912" height="430" viewBox="0 0 912 430" fill="none" xmlns="http://www.w3.org/2000/svg">
<rect x="0.5" y="0.5" width="911" height="429" fill="#BEBEC6" stroke="#C6C6C6"/>
<rect x="64.5" y="56.5" width="847" height="373" fill="#D9D9D9" stroke="#C6C6C6"/>
<mask id="path-3-inside-1_13_69" fill="white">
<path d="M64 93H289V430H64V93Z"/>
</mask>
<path d="M64 93H289V430H64V93Z" fill="#1F2937"/>
<path d="M288 93V430H290V93H288ZM65 430V93H63V430H65Z" fill="#C6C6C6" mask="url(#path-3-inside-1_13_69)"/>
<rect x="64.5" y="56.5" width="847" height="36" fill="#D5D6D9" stroke="#C6C6C6"/>
<rect x="289" y="93" width="623" height="52" fill="white"/>
<rect x="89" y="110" width="176" height="35" rx="17.5" fill="#4764D9"/>
<rect x="89" y="189" width="176" height="26" rx="13" fill="#4C5167"/>
<rect x="89" y="224" width="176" height="26" rx="13" fill="#4C5167"/>
<rect x="89" y="224" width="176" height="26" rx="13" fill="#4C5167"/>
<rect x="89" y="224" width="176" height="26" rx="13" fill="#4C5167"/>
<rect x="88" y="259" width="176" height="26" rx="13" fill="#4C5167"/>
<rect x="88" y="259" width="176" height="26" rx="13" fill="#4C5167"/>
<rect x="88" y="259" width="176" height="26" rx="13" fill="#4C5167"/>
<rect x="88" y="329" width="176" height="26" rx="13" fill="#4C5167"/>
<rect x="88" y="329" width="176" height="26" rx="13" fill="#4C5167"/>
<rect x="88" y="329" width="176" height="26" rx="13" fill="#4C5167"/>
<rect x="89" y="294" width="176" height="26" rx="13" fill="#4C5167"/>
<rect x="89" y="294" width="176" height="26" rx="13" fill="#4C5167"/>
<rect x="89" y="294" width="176" height="26" rx="13" fill="#4C5167"/>
<rect x="300" y="104" width="79" height="30" rx="15" fill="#0B0B0B"/>
<rect x="785" y="104" width="117" height="30" rx="15" fill="#0900FF"/>
<mask id="path-15-outside-2_13_69" maskUnits="userSpaceOnUse" x="314" y="168" width="195" height="27" fill="black">
<rect fill="white" x="314" y="168" width="195" height="27"/>
<path d="M314 169H509V195H314V169Z"/>
</mask>
<path d="M314 169H509V195H314V169Z" fill="white"/>
<path d="M314 170H509V168H314V170Z" fill="#4764D9" mask="url(#path-15-outside-2_13_69)"/>
<rect x="321" y="174" width="58" height="15" rx="7.5" fill="black"/>
<rect x="383" y="174" width="15" height="15" rx="7.5" fill="#4764D9"/>
<rect x="493" y="177" width="10" height="10" rx="5" fill="#969698"/>
<rect x="476" y="177" width="10" height="10" rx="5" fill="#969698"/>
<mask id="path-21-outside-3_13_69" maskUnits="userSpaceOnUse" x="527" y="168" width="195" height="27" fill="black">
<rect fill="white" x="527" y="168" width="195" height="27"/>
<path d="M527 169H722V195H527V169Z"/>
</mask>
<path d="M527 169H722V195H527V169Z" fill="white"/>
<path d="M527 170H722V168H527V170Z" fill="#4764D9" mask="url(#path-21-outside-3_13_69)"/>
<rect x="534" y="174" width="58" height="15" rx="7.5" fill="black"/>
<rect x="596" y="174" width="15" height="15" rx="7.5" fill="#4764D9"/>
<rect x="706" y="177" width="10" height="10" rx="5" fill="#969698"/>
<rect x="689" y="177" width="10" height="10" rx="5" fill="#969698"/>
<rect x="314" y="217" width="195" height="84" fill="white"/>
<rect x="321" y="224" width="107" height="20" rx="10" fill="#4764D9"/>
<rect x="321" y="249" width="165" height="13" rx="6.5" fill="black"/>
<rect x="490" y="249" width="13" height="13" rx="6.5" fill="#969698"/>
<path d="M321 275C321 273.343 322.343 272 324 272H500C501.657 272 503 273.343 503 275V275C503 276.657 501.657 278 500 278H324C322.343 278 321 276.657 321 275V275Z" fill="#969698"/>
<rect x="321" y="285" width="182" height="6" rx="3" fill="#969698"/>
<rect x="527" y="217" width="195" height="84" fill="white"/>
<rect x="534" y="224" width="107" height="20" rx="10" fill="#4764D9"/>
<rect x="534" y="249" width="165" height="13" rx="6.5" fill="black"/>
<rect x="703" y="249" width="13" height="13" rx="6.5" fill="#969698"/>
<path d="M534 275C534 273.343 535.343 272 537 272H713C714.657 272 716 273.343 716 275V275C716 276.657 714.657 278 713 278H537C535.343 278 534 276.657 534 275V275Z" fill="#969698"/>
<rect x="534" y="285" width="182" height="6" rx="3" fill="#969698"/>
</svg>
